<svg width="870" height="250" viewBox="0 0 870 250" fill="none" xmlns="http://www.w3.org/2000/svg">
<path d="M317.6 161V102H294.4V91H353.8V102H330.6V161H317.6ZM382.321 161.7C376.388 161.7 371.187 160.533 366.721 158.2C362.321 155.8 358.887 152.533 356.421 148.4C354.021 144.267 352.821 139.567 352.821 134.3C352.821 128.967 353.987 124.267 356.321 120.2C358.721 116.067 361.987 112.833 366.121 110.5C370.321 108.167 375.087 107 380.421 107C385.621 107 390.254 108.133 394.321 110.4C398.387 112.667 401.587 115.867 403.921 120C406.254 124.133 407.421 129 407.421 134.6C407.421 135.133 407.388 135.733 407.321 136.4C407.321 137.067 407.287 137.7 407.221 138.3H362.721V130H400.621L395.721 132.6C395.788 129.533 395.154 126.833 393.821 124.5C392.488 122.167 390.654 120.333 388.321 119C386.054 117.667 383.421 117 380.421 117C377.354 117 374.654 117.667 372.321 119C370.054 120.333 368.254 122.2 366.921 124.6C365.654 126.933 365.021 129.7 365.021 132.9V134.9C365.021 138.1 365.754 140.933 367.221 143.4C368.687 145.867 370.754 147.767 373.421 149.1C376.087 150.433 379.154 151.1 382.621 151.1C385.621 151.1 388.321 150.633 390.721 149.7C393.121 148.767 395.254 147.3 397.121 145.3L403.821 153C401.421 155.8 398.388 157.967 394.721 159.5C391.121 160.967 386.988 161.7 382.321 161.7ZM419.761 161V107.6H431.661V122.3L430.261 118C431.861 114.4 434.361 111.667 437.761 109.8C441.228 107.933 445.528 107 450.661 107V118.9C450.128 118.767 449.628 118.7 449.161 118.7C448.695 118.633 448.228 118.6 447.761 118.6C443.028 118.6 439.261 120 436.461 122.8C433.661 125.533 432.261 129.633 432.261 135.1V161H419.761ZM461.598 161V107.6H473.498V121.8L471.398 117.6C473.198 114.133 475.798 111.5 479.198 109.7C482.665 107.9 486.598 107 490.998 107C495.998 107 500.332 108.233 503.998 110.7C507.732 113.167 510.198 116.9 511.398 121.9L506.498 120.2C508.232 116.2 511.098 113 515.098 110.6C519.098 108.2 523.732 107 528.998 107C533.265 107 537.032 107.833 540.298 109.5C543.632 111.167 546.232 113.733 548.098 117.2C549.965 120.6 550.898 125 550.898 130.4V161H538.398V132C538.398 127.267 537.365 123.733 535.298 121.4C533.232 119.067 530.265 117.9 526.398 117.9C523.665 117.9 521.232 118.5 519.098 119.7C517.032 120.9 515.398 122.667 514.198 125C513.065 127.333 512.498 130.3 512.498 133.9V161H499.998V132C499.998 127.267 498.965 123.733 496.898 121.4C494.832 119.067 491.865 117.9 487.998 117.9C485.265 117.9 482.832 118.5 480.698 119.7C478.632 120.9 476.998 122.667 475.798 125C474.665 127.333 474.098 130.3 474.098 133.9V161H461.598ZM568.405 161V91H597.205C603.405 91 608.705 92 613.105 94C617.572 96 621.005 98.8667 623.405 102.6C625.805 106.333 627.005 110.767 627.005 115.9C627.005 121.033 625.805 125.467 623.405 129.2C621.005 132.933 617.572 135.8 613.105 137.8C608.705 139.8 603.405 140.8 597.205 140.8H575.605L581.405 134.7V161H568.405ZM581.405 136.1L575.605 129.8H596.605C602.339 129.8 606.639 128.6 609.505 126.2C612.439 123.733 613.905 120.3 613.905 115.9C613.905 111.433 612.439 108 609.505 105.6C606.639 103.2 602.339 102 596.605 102H575.605L581.405 95.6V136.1ZM638.632 161V107.6H650.532V122.3L649.132 118C650.732 114.4 653.232 111.667 656.632 109.8C660.099 107.933 664.399 107 669.532 107V118.9C668.999 118.767 668.499 118.7 668.032 118.7C667.566 118.633 667.099 118.6 666.632 118.6C661.899 118.6 658.132 120 655.332 122.8C652.532 125.533 651.132 129.633 651.132 135.1V161H638.632ZM680.47 161V107.6H692.97V161H680.47ZM686.77 98.8C684.436 98.8 682.503 98.0667 680.97 96.6C679.503 95.1333 678.77 93.3667 678.77 91.3C678.77 89.1667 679.503 87.4 680.97 86C682.503 84.5333 684.436 83.8 686.77 83.8C689.103 83.8 691.003 84.5 692.47 85.9C694.003 87.2333 694.77 88.9333 694.77 91C694.77 93.2 694.036 95.0667 692.57 96.6C691.103 98.0667 689.17 98.8 686.77 98.8ZM709.709 161V107.6H721.609V121.8L719.509 117.6C721.309 114.133 723.909 111.5 727.309 109.7C730.776 107.9 734.709 107 739.109 107C744.109 107 748.442 108.233 752.109 110.7C755.842 113.167 758.309 116.9 759.509 121.9L754.609 120.2C756.342 116.2 759.209 113 763.209 110.6C767.209 108.2 771.842 107 777.109 107C781.376 107 785.142 107.833 788.409 109.5C791.742 111.167 794.342 113.733 796.209 117.2C798.076 120.6 799.009 125 799.009 130.4V161H786.509V132C786.509 127.267 785.476 123.733 783.409 121.4C781.342 119.067 778.376 117.9 774.509 117.9C771.776 117.9 769.342 118.5 767.209 119.7C765.142 120.9 763.509 122.667 762.309 125C761.176 127.333 760.609 130.3 760.609 133.9V161H748.109V132C748.109 127.267 747.076 123.733 745.009 121.4C742.942 119.067 739.976 117.9 736.109 117.9C733.376 117.9 730.942 118.5 728.809 119.7C726.742 120.9 725.109 122.667 723.909 125C722.776 127.333 722.209 130.3 722.209 133.9V161H709.709ZM840.514 161.7C834.58 161.7 829.38 160.533 824.914 158.2C820.514 155.8 817.08 152.533 814.614 148.4C812.214 144.267 811.014 139.567 811.014 134.3C811.014 128.967 812.18 124.267 814.514 120.2C816.914 116.067 820.18 112.833 824.314 110.5C828.514 108.167 833.28 107 838.614 107C843.814 107 848.447 108.133 852.514 110.4C856.58 112.667 859.78 115.867 862.114 120C864.447 124.133 865.614 129 865.614 134.6C865.614 135.133 865.58 135.733 865.514 136.4C865.514 137.067 865.48 137.7 865.414 138.3H820.914V130H858.814L853.914 132.6C853.98 129.533 853.347 126.833 852.014 124.5C850.68 122.167 848.847 120.333 846.514 119C844.247 117.667 841.614 117 838.614 117C835.547 117 832.847 117.667 830.514 119C828.247 120.333 826.447 122.2 825.114 124.6C823.847 126.933 823.214 129.7 823.214 132.9V134.9C823.214 138.1 823.947 140.933 825.414 143.4C826.88 145.867 828.947 147.767 831.614 149.1C834.28 150.433 837.347 151.1 840.814 151.1C843.814 151.1 846.514 150.633 848.914 149.7C851.314 148.767 853.447 147.3 855.314 145.3L862.014 153C859.614 155.8 856.58 157.967 852.914 159.5C849.314 160.967 845.18 161.7 840.514 161.7Z" fill="black"/>
<mask id="mask0_3311_18" style="mask-type:alpha" maskUnits="userSpaceOnUse" x="16" y="3" width="218" height="244">
<path d="M115 5.7735C121.188 2.20085 128.812 2.20085 135 5.7735L223.253 56.7265C229.441 60.2992 233.253 66.9017 233.253 74.047V175.953C233.253 183.098 229.441 189.701 223.253 193.273L135 244.227C128.812 247.799 121.188 247.799 115 244.227L26.7468 193.273C20.5588 189.701 16.7468 183.098 16.7468 175.953V74.047C16.7468 66.9017 20.5588 60.2992 26.7468 56.7265L115 5.7735Z" fill="#0084E4"/>
</mask>
<g mask="url(#mask0_3311_18)">
<path d="M115 5.7735C121.188 2.20085 128.812 2.20085 135 5.7735L223.253 56.7265C229.441 60.2992 233.253 66.9017 233.253 74.047V175.953C233.253 183.098 229.441 189.701 223.253 193.273L135 244.227C128.812 247.799 121.188 247.799 115 244.227L26.7468 193.273C20.5588 189.701 16.7468 183.098 16.7468 175.953V74.047C16.7468 66.9017 20.5588 60.2992 26.7468 56.7265L115 5.7735Z" fill="#3086F6"/>
<path d="M134.001 117.205C175.201 38.8046 288.834 59.2047 340.501 79.2047V298H-60.9994V186.205L-59.8175 186.44C34.8975 205.285 82.7135 214.8 134.001 117.205Z" fill="url(#paint0_linear_3311_18)"/>
<path opacity="0.7" d="M124.5 116.205C83.3002 37.8046 -30.3331 58.2047 -81.9998 78.2047V297H319.5V185.205L318.318 185.44C223.603 204.285 175.787 213.8 124.5 116.205Z" fill="url(#paint1_linear_3311_18)"/>
</g>
<defs>
<linearGradient id="paint0_linear_3311_18" x1="139.751" y1="116" x2="139.751" y2="298" gradientUnits="userSpaceOnUse">
<stop stop-color="white"/>
<stop offset="1" stop-color="white" stop-opacity="0"/>
</linearGradient>
<linearGradient id="paint1_linear_3311_18" x1="118.75" y1="60" x2="119" y2="207.5" gradientUnits="userSpaceOnUse">
<stop stop-color="white"/>
<stop offset="1" stop-color="white" stop-opacity="0"/>
</linearGradient>
</defs>
</svg>
